<?xml version="1.0" standalone="no"?>
<!DOCTYPE svg PUBLIC "-//W3C//DTD SVG 20010904//EN"
 "http://www.w3.org/TR/2001/REC-SVG-20010904/DTD/svg10.dtd">
<svg version="1.0" xmlns="http://www.w3.org/2000/svg"
 width="399.000000pt" height="399.000000pt" viewBox="0 0 399.000000 399.000000"
 preserveAspectRatio="xMidYMid meet">
<metadata>
Created by potrace 1.14, written by Peter Selinger 2001-2017
</metadata>
<g transform="translate(0.000000,399.000000) scale(0.100000,-0.100000)"
fill="#000000" stroke="none">
<path d="M1197 3630 c-330 -68 -607 -247 -828 -535 -139 -181 -270 -467 -315
-688 -30 -150 -37 -212 -39 -377 -7 -453 125 -849 392 -1178 168 -207 376
-356 613 -440 76 -26 109 -35 225 -57 54 -11 248 -13 325 -3 106 12 250 52
351 97 l86 38 39 -20 c158 -81 377 -127 574 -121 63 2 126 6 140 9 13 2 42 7
64 11 63 9 237 69 316 109 325 164 589 466 725 830 45 120 92 301 101 387 3
35 9 67 12 72 9 15 11 359 2 431 -35 300 -109 532 -238 752 -220 374 -587 633
-982 691 -62 10 -303 8 -370 -2 -79 -12 -212 -52 -306 -92 l-82 -35 -44 20
c-105 48 -201 78 -333 107 -16 3 -100 7 -185 9 -119 2 -176 -2 -243 -15z m349
-73 c6 -5 5 -267 0 -327 -18 -181 -18 -180 4 -180 11 0 20 3 21 8 0 4 2 16 4
27 8 44 18 227 19 343 1 141 -7 134 111 103 114 -30 286 -103 324 -137 2 -2
-4 -20 -14 -41 -66 -141 -97 -201 -153 -302 -51 -89 -62 -115 -51 -122 8 -5
17 -9 21 -9 10 0 99 159 176 314 l67 136 80 -63 c78 -62 180 -162 226 -221
l23 -30 -94 -89 c-52 -49 -133 -121 -180 -160 -47 -39 -91 -76 -98 -82 -15
-13 -6 -45 13 -45 7 0 15 3 17 8 2 4 41 39 88 78 116 97 125 106 206 185 66
64 72 68 86 51 39 -44 117 -185 163 -294 l33 -77 -33 -20 c-40 -23 -292 -138
-387 -176 -60 -24 -67 -29 -57 -46 5 -10 12 -19 14 -19 11 0 295 125 375 165
49 25 94 45 99 45 5 0 11 -10 14 -22 3 -13 17 -72 31 -133 24 -104 38 -189 40
-245 1 -23 -4 -26 -80 -42 -45 -9 -99 -19 -120 -22 -22 -4 -77 -13 -124 -21
-131 -22 -174 -28 -191 -27 -11 0 -15 -6 -11 -23 5 -27 -9 -27 196 6 175 28
179 29 206 34 145 29 130 32 131 -22 2 -72 -1 -204 -6 -243 -14 -119 -18 -140
-28 -141 -27 -4 -271 9 -304 15 -10 2 -52 7 -93 10 -41 4 -90 9 -107 12 -30 5
-33 3 -33 -19 0 -13 6 -24 13 -24 12 0 110 -10 177 -18 33 -4 113 -10 274 -20
38 -3 70 -6 72 -8 6 -6 -35 -163 -66 -252 -36 -101 -66 -165 -78 -165 -21 0
-290 102 -419 158 -88 38 -93 39 -99 20 -3 -11 -4 -22 -1 -24 9 -9 312 -131
409 -165 l97 -33 -30 -56 c-44 -77 -129 -195 -191 -262 l-53 -58 -75 61 c-89
72 -190 161 -280 246 -58 55 -67 60 -80 47 -13 -14 -5 -25 77 -104 51 -49 143
-130 205 -181 62 -50 114 -95 116 -99 4 -10 -132 -116 -206 -159 -107 -62
-178 -94 -195 -88 -18 7 -149 270 -203 408 -31 80 -40 95 -56 91 -10 -2 -18
-9 -18 -14 0 -22 86 -222 155 -361 l74 -148 -25 -9 c-37 -15 -142 -37 -209
-46 -95 -12 -247 -7 -256 8 -15 23 0 493 16 546 3 7 -5 12 -20 12 -19 0 -25
-5 -26 -22 0 -13 -3 -32 -5 -43 -3 -11 -8 -126 -11 -255 -3 -129 -7 -237 -9
-239 -2 -2 -50 8 -106 23 -97 25 -348 136 -348 154 0 14 158 327 208 412 44
76 48 86 33 97 -9 6 -19 9 -23 5 -17 -17 -150 -262 -199 -366 -29 -64 -58
-116 -63 -116 -28 0 -271 235 -308 298 l-17 29 87 84 c103 99 152 143 247 223
39 32 71 62 73 66 1 4 -4 12 -12 19 -11 9 -32 -4 -112 -71 -104 -87 -215 -188
-274 -249 l-35 -37 -26 37 c-41 57 -104 178 -143 275 -20 49 -36 90 -36 91 0
5 344 171 414 200 68 29 88 47 69 66 -10 10 -117 -35 -353 -149 l-145 -71 -13
42 c-21 70 -51 228 -57 302 -4 39 -8 75 -10 82 -2 7 18 15 53 22 31 5 104 19
162 30 109 20 141 25 225 37 92 13 99 12 100 -16 15 -234 93 -424 238 -577 85
-90 222 -171 318 -188 18 -3 35 -8 39 -10 12 -7 152 -7 205 0 117 16 256 90
353 187 100 100 160 206 209 368 35 117 41 332 12 464 -100 465 -524 726 -914
563 -123 -51 -250 -166 -330 -297 -74 -123 -127 -298 -129 -426 0 -12 -5 -20
-11 -18 -13 5 -364 -47 -415 -61 -8 -2 -31 -7 -50 -10 -19 -3 -43 -8 -53 -11
-17 -5 -18 1 -13 110 5 102 17 208 30 271 3 11 5 28 5 39 1 17 7 18 88 12 175
-13 220 -17 331 -31 62 -8 115 -15 118 -15 2 0 4 11 4 24 0 17 -5 25 -17 24
-17 -1 -120 11 -155 17 -9 2 -56 7 -104 10 -48 4 -97 9 -108 11 -12 2 -47 5
-79 5 -41 1 -57 5 -57 15 0 30 65 214 107 306 l45 97 85 -30 c46 -16 148 -57
226 -90 170 -73 182 -76 191 -54 5 13 -11 24 -77 54 -92 43 -369 151 -386 151
-20 0 -12 18 45 102 94 138 208 264 228 250 45 -34 228 -187 261 -218 124
-117 114 -109 131 -93 13 14 8 23 -58 85 -40 38 -126 114 -191 168 -96 81
-116 101 -105 112 43 41 187 134 273 175 55 27 103 49 107 49 10 0 138 -266
179 -372 33 -86 41 -96 66 -80 14 9 -55 181 -139 351 -29 58 -54 109 -56 113
-3 7 121 36 201 47 59 8 255 7 263 -2z m995 -38 c3 -24 7 -114 8 -200 l2 -156
-74 16 c-72 15 -77 19 -158 96 -46 44 -114 102 -152 129 -61 43 -76 66 -44 66
7 0 25 7 40 15 59 31 290 83 352 80 16 -1 21 -11 26 -46z m211 36 c99 -16 275
-69 296 -89 4 -5 -95 -286 -134 -380 l-35 -84 -44 29 c-48 32 -206 109 -224
109 -14 0 -12 -11 -16 150 -1 74 -6 167 -9 206 l-6 72 65 -3 c36 -2 84 -6 107
-10z m473 -182 c100 -64 245 -188 245 -210 0 -18 -121 -167 -241 -298 -26 -27
-57 -62 -70 -76 l-22 -26 -110 110 -109 110 28 66 c15 36 33 80 40 96 7 17 34
92 60 167 l46 137 32 -16 c17 -8 63 -36 101 -60z m380 -369 c45 -62 160 -272
154 -278 -9 -8 -184 -119 -213 -135 -17 -10 -77 -43 -132 -74 -56 -31 -106
-57 -110 -57 -5 0 -20 26 -33 58 -13 31 -44 90 -68 131 -49 84 -54 65 43 170
100 109 123 136 191 222 l68 87 28 -31 c16 -18 48 -60 72 -93z m-1011 -8 c76
-55 179 -162 234 -243 104 -154 187 -375 208 -552 3 -25 7 -57 10 -71 5 -31 5
-283 -1 -330 -12 -100 -18 -133 -41 -222 -58 -232 -190 -458 -346 -591 -30
-26 -71 -54 -92 -62 -33 -14 -29 -9 39 57 102 96 164 181 229 313 111 223 152
411 150 690 -2 188 -23 324 -76 480 -66 196 -157 344 -297 482 -51 51 -90 93
-86 93 4 0 35 -20 69 -44z m116 -16 c140 -105 236 -221 319 -386 68 -136 121
-321 136 -474 7 -70 8 -312 1 -345 -2 -11 -7 -40 -10 -65 -26 -193 -133 -467
-218 -560 -30 -34 -102 -91 -158 -125 l-45 -28 47 52 c131 145 232 356 278
576 47 223 47 473 1 682 -56 256 -166 466 -328 629 -46 46 -83 84 -81 84 3 0
28 -18 58 -40z m254 -162 c250 -252 362 -588 323 -972 -15 -143 -73 -320 -148
-448 -22 -37 -41 -68 -43 -68 -2 0 8 28 21 62 82 202 114 463 91 729 -24 267
-150 578 -296 732 -65 68 -21 38 52 -35z m-240 -73 c101 -152 176 -353 201
-535 3 -25 8 -58 11 -75 8 -44 7 -251 0 -320 -12 -112 -17 -140 -37 -220 -55
-221 -151 -403 -288 -545 l-72 -75 30 51 c117 196 201 436 238 678 32 211 15
599 -33 758 -3 9 -7 25 -9 36 -9 47 -76 233 -108 302 l-36 75 35 -40 c19 -22
50 -62 68 -90z m-1304 20 c189 -23 377 -169 476 -370 69 -140 89 -238 88 -415
-1 -335 -176 -614 -452 -723 -68 -27 -89 -30 -187 -31 -91 -1 -123 3 -185 23
-133 44 -249 136 -335 266 -56 85 -75 124 -106 219 -29 90 -31 102 -35 241 -4
165 13 252 77 393 100 219 300 377 509 402 55 6 67 6 150 -5z m2397 -195 c32
-101 55 -199 68 -291 l7 -46 -83 -23 c-173 -46 -423 -100 -430 -93 -4 4 -11
34 -14 67 -3 32 -15 96 -27 142 -11 47 -19 86 -17 88 2 2 62 36 133 75 71 40
170 99 220 131 50 32 95 57 101 56 5 -2 24 -49 42 -106z m84 -434 c6 -229 -2
-384 -21 -396 -10 -6 -269 -4 -395 4 -33 2 -75 4 -93 5 l-33 1 6 53 c8 62 14
142 14 213 l1 50 88 18 c106 21 90 17 242 55 69 17 134 35 145 40 38 16 45 10
46 -43z m-246 -441 l220 -6 -1 -32 c-3 -51 -50 -228 -86 -319 -27 -67 -37 -83
-53 -82 -27 2 -368 116 -431 146 l-52 23 34 85 c18 47 40 111 49 142 l16 58
42 -5 c23 -2 141 -7 262 -10z m-368 -336 c66 -28 397 -139 416 -139 32 0 27
-22 -19 -103 -56 -98 -117 -185 -176 -250 l-43 -48 -42 33 c-23 18 -67 51 -99
73 -31 22 -64 47 -74 55 -10 8 -56 47 -103 85 -48 39 -86 73 -87 77 0 5 15 25
34 45 37 42 126 172 126 185 0 12 14 10 67 -13z m-36 -431 c80 -62 155 -119
165 -125 18 -12 15 -16 -36 -64 -62 -57 -186 -142 -275 -188 l-60 -31 -18 22
c-21 25 -159 247 -205 330 l-31 57 77 54 c42 30 95 70 117 90 l40 36 40 -35
c22 -18 106 -84 186 -146z m-448 -111 c25 -45 79 -134 120 -199 l74 -116 -61
-20 c-85 -28 -217 -51 -301 -53 -121 -3 -110 -11 -129 94 -24 129 -43 277 -37
281 3 2 39 13 78 25 40 12 101 34 135 50 35 16 66 27 70 25 3 -3 27 -41 51
-87z m-376 -68 c2 -19 13 -92 24 -164 12 -71 22 -134 23 -140 3 -27 -191 14
-321 66 -29 12 -53 24 -53 28 0 3 29 25 63 48 34 23 102 79 150 123 49 45 94
79 100 77 6 -2 12 -19 14 -38z"/>
<path d="M1412 2671 c64 -13 96 -43 89 -84 -1 -5 3 -6 8 -2 33 20 -50 96 -103
94 -30 -1 -30 -1 6 -8z"/>
<path d="M1334 2645 c-9 -14 -14 -28 -10 -32 3 -3 6 -1 6 5 0 7 9 21 20 32 11
11 16 20 10 20 -5 0 -17 -11 -26 -25z"/>
<path d="M1316 2592 c-7 -11 20 -62 42 -78 9 -7 24 -13 32 -13 10 0 8 3 -5 8
-28 12 -56 45 -58 70 -1 23 -3 25 -11 13z"/>
<path d="M1482 2539 c-13 -16 -32 -29 -42 -29 -10 0 -21 -4 -24 -9 -3 -4 6 -6
19 -3 25 4 75 47 75 63 0 13 -3 11 -28 -22z"/>
<path d="M869 2459 c-27 -10 -68 -73 -56 -85 4 -4 7 0 7 8 0 28 40 67 76 74
90 17 125 -118 41 -160 -18 -8 -25 -16 -17 -16 46 0 89 74 71 123 -22 57 -65
77 -122 56z"/>
<path d="M1254 2424 c-27 -7 -52 -13 -55 -14 -4 0 -33 -20 -66 -44 -175 -128
-228 -380 -125 -589 125 -254 441 -292 610 -72 75 98 110 265 83 397 -47 226
-252 373 -447 322z m195 -102 c118 -62 183 -191 176 -345 -4 -98 -35 -174 -96
-241 -142 -156 -356 -112 -452 92 -40 87 -48 210 -18 294 35 102 106 181 193
218 40 17 149 7 197 -18z"/>
<path d="M811 2344 c-1 -29 41 -67 71 -61 22 4 22 4 -3 6 -28 1 -54 25 -62 56
-5 19 -5 19 -6 -1z"/>
<path d="M1756 2259 c-17 -19 -26 -43 -26 -64 0 -33 40 -95 62 -95 6 0 -4 13
-21 29 -58 54 -29 151 45 151 37 0 84 -36 84 -65 0 -8 5 -15 10 -15 6 0 4 13
-5 29 -34 68 -106 82 -149 30z"/>
<path d="M1896 2156 c-16 -38 -24 -45 -59 -48 -14 -1 -24 -5 -21 -9 6 -10 46
1 66 18 16 14 42 73 33 73 -3 0 -11 -15 -19 -34z"/>
<path d="M853 1889 c96 -28 97 -151 3 -178 -24 -7 -26 -9 -9 -10 30 -1 80 44
88 79 6 30 -11 76 -38 98 -8 7 -29 14 -48 17 -33 4 -33 4 4 -6z"/>
<path d="M771 1864 c-12 -15 -21 -40 -20 -58 1 -29 2 -28 9 8 4 22 18 48 30
58 12 10 18 18 12 18 -6 0 -20 -12 -31 -26z"/>
<path d="M760 1763 c0 -14 39 -53 54 -53 6 0 1 7 -11 15 -13 9 -27 23 -32 33
-6 9 -11 12 -11 5z"/>
<path d="M1740 1713 c-21 -8 -60 -45 -60 -57 0 -6 7 0 16 12 8 12 30 29 47 36
31 14 28 20 -3 9z"/>
<path d="M1786 1709 c3 -5 11 -9 19 -9 21 0 45 -41 45 -76 0 -34 -38 -84 -65
-84 -8 0 -15 -5 -15 -10 0 -17 55 17 74 44 22 34 20 78 -4 108 -18 24 -67 48
-54 27z"/>
<path d="M1673 1614 c6 -41 26 -70 54 -83 38 -17 41 -13 7 8 -37 23 -44 32
-50 68 -7 39 -17 45 -11 7z"/>
<path d="M1220 1493 c-22 -8 -60 -45 -60 -57 0 -6 10 2 23 17 14 18 35 30 59
34 32 5 41 1 68 -25 51 -51 38 -117 -28 -137 -13 -4 -22 -9 -19 -11 8 -8 60
16 73 34 8 9 14 29 14 44 1 73 -66 125 -130 101z"/>
<path d="M1150 1409 c0 -5 5 -7 10 -4 6 3 10 8 10 11 0 2 -4 4 -10 4 -5 0 -10
-5 -10 -11z"/>
<path d="M1160 1385 c0 -21 30 -53 60 -63 16 -6 30 -9 30 -6 0 3 -14 10 -30
16 -17 5 -37 22 -45 37 -8 14 -14 21 -15 16z"/>
</g>
</svg>
