<svg id="Layer_1" data-name="Layer 1" xmlns="http://www.w3.org/2000/svg" viewBox="0 0 609.24 337.91"><defs><style>.cls-1{fill:#ed6a1c;}.cls-2{fill:#2faba4;}.cls-3,.cls-4,.cls-5,.cls-6,.cls-7,.cls-8{fill:none;stroke-miterlimit:10;}.cls-3,.cls-8{stroke:#131313;}.cls-3{stroke-width:2.32px;}.cls-4,.cls-5{stroke:#212121;}.cls-4,.cls-6{stroke-width:4.65px;}.cls-5,.cls-7{stroke-width:2.32px;}.cls-6{stroke:#ed6a1c;}.cls-7{stroke:#2eaca6;}.cls-8{stroke-width:0.46px;}.cls-9{fill:#2eaca6;}.cls-10{fill:#ec6a1c;}</style></defs><path class="cls-1" d="M71.47,66.57c-3.17-1.89-5.82-3.62-7.89-5.16a29.85,29.85,0,0,1-4.22-3.63A10.11,10.11,0,0,1,57,51a10.78,10.78,0,0,1,3.52-8.37,13,13,0,0,1,9.38-3.42c5.4,0,10.23,3.23,14.75,9.86l3.06,4.49L106.05,36.1l-2.59-3.3C98.18,26.07,93.1,21.39,88,18.51S76.49,14,69.33,14c-11,0-20.24,3.52-27.52,10.46S30.72,40.34,30.72,50.86c0,7.87,1.94,14.59,5.81,20,3.82,5.15,10.16,10.31,19.39,15.77,3.62,2.15,6.63,4.09,9,5.78a28.66,28.66,0,0,1,4.8,4.16,10.19,10.19,0,0,1,2.54,7.1c0,4.54-1.18,7.86-3.62,10.14s-6.09,3.51-10.91,3.51c-4.42,0-8-.9-10.52-2.68-2.77-1.91-5.78-5.7-8.93-11.24l-2.46-4.35L15.2,113l2.09,3.7a68.88,68.88,0,0,0,8,11.49,40.9,40.9,0,0,0,9.35,8c6.6,4.11,14.69,6.19,24,6.19,11.72,0,21.35-3.52,28.62-10.45,7.46-7,11.25-16.24,11.25-27.41,0-8.56-2-15.69-5.9-21.16C88.87,78.2,81.94,72.68,71.47,66.57Z" transform="translate(-15.2 -2.3)"/><path class="cls-1" d="M181.26,54.77l-.54,4.43a31.57,31.57,0,0,0-5.46-3.26,34.8,34.8,0,0,0-14.71-2.88c-11.88,0-21.79,4.23-29.47,12.58-7.44,8.21-11.21,18.79-11.21,31.45,0,11.15,3.36,20.42,10,27.56s15.47,10.89,26,10.89a33.75,33.75,0,0,0,15.93-4.11l-.31,2.48h25.72L207,54.77Zm-21.75,58a12.51,12.51,0,0,1-9.9-4.31c-2.72-3.07-4-7-4-12,0-5.94,1.68-10.79,5.11-14.79A15.07,15.07,0,0,1,162.63,76a13.31,13.31,0,0,1,10.42,4.38c2.77,3,4.12,6.91,4.12,11.94a21.16,21.16,0,0,1-5.42,14.58C168.23,110.83,164.22,112.74,159.51,112.74Z" transform="translate(-15.2 -2.3)"/><polygon class="cls-1" points="256.91 61.02 236.04 98.19 226.03 61.02 199.14 61.02 228.94 155.68 286.6 61.02 256.91 61.02"/><path class="cls-1" d="M386.2,71.53a30.58,30.58,0,0,0,8.37-8.24c3.44-5.15,5.19-11.68,5.19-19.41,0-10.25-3.19-18.56-9.49-24.68S375.56,10,365.31,10c-23.51,0-36.8,13.25-38.45,38.31l-.32,4.91h24.18l.34-4.25c.56-7.11,2.48-14.38,12.4-14.38,3.55,0,6.14.88,7.93,2.68s2.67,4.36,2.67,7.78c0,5-1.17,8.69-3.49,11.07s-5.59,3.48-10.23,3.46H352.1l-3,24.29h5.22c16.24,0,18.32,7,18.32,13.13,0,4.77-1.46,8.49-4.45,11.37s-7,4.36-12,4.36c-4.3,0-7.69-1-10.05-2.83s-3.72-4.49-4.33-8.16l-.63-3.86H316.42l.51,5.08a43.22,43.22,0,0,0,3.89,14.42,33.66,33.66,0,0,0,8.26,10.9,35,35,0,0,0,12,6.72,47.57,47.57,0,0,0,15,2.24c12.37,0,22.59-3.63,30.36-10.8s11.88-16.92,11.88-28.7C398.35,86.28,394.18,77.38,386.2,71.53Z" transform="translate(-15.2 -2.3)"/><path class="cls-1" d="M516.57,46.72c-4.7-9.39-11.26-16.56-19.46-21.29a44.26,44.26,0,0,0-14.76-5.37c-5-1-11.92-1.42-21.05-1.42H434.07L418.83,142.46h34.24c5.33,0,10.05-.12,14-.38a96.33,96.33,0,0,0,10.69-1.19,54.85,54.85,0,0,0,16.72-6.3,53.36,53.36,0,0,0,12.1-10,63.13,63.13,0,0,0,9.14-13.51,73.3,73.3,0,0,0,7.77-33.4A68.52,68.52,0,0,0,516.57,46.72ZM497.22,77c0,11.69-3.06,21.49-9.14,29.17a24.73,24.73,0,0,1-11.46,8.71c-4.82,1.7-11.8,2.56-20.73,2.56h-7.71l9-73.76h5.42c9,0,15.79,1.11,20.07,3.27s7.83,6,10.47,11.19A41.61,41.61,0,0,1,497.22,77Z" transform="translate(-15.2 -2.3)"/><polygon class="cls-1" points="228.94 155.68 243.56 141.72 213.75 47.06 199.14 61.02 228.94 155.68"/><polygon class="cls-1" points="256.91 61.02 271.52 47.06 250.65 84.23 248.46 76.07 256.91 61.02"/><path class="cls-1" d="M418.83,142.46" transform="translate(-15.2 -2.3)"/><polygon class="cls-1" points="0 110.74 6.44 99 9.47 104.32 0 110.74"/><polygon class="cls-1" points="72.53 51.27 78.97 39.54 97.28 22.06 90.84 33.79 72.53 51.27"/><polygon class="cls-1" points="403.63 140.16 418.24 126.2 433.48 2.38 418.86 16.34 403.63 140.16"/><polygon class="cls-1" points="335.51 50.87 342.23 43.81 318.05 43.81 311.34 50.87 335.51 50.87"/><polygon class="cls-1" points="336.9 57.23 343.61 50.17 340.62 74.47 333.91 81.52 336.9 57.23"/><polygon class="cls-1" points="301.21 95.53 307.92 88.47 308.68 95.53 301.21 95.53"/><polygon class="cls-1" points="156.29 131.61 161.68 126.2 187.4 126.2 182.01 131.61 156.29 131.61"/><path class="cls-2" d="M77.91,54.84C74.75,53,72.09,51.21,70,49.67A29.78,29.78,0,0,1,65.8,46a10.11,10.11,0,0,1-2.34-6.76A10.78,10.78,0,0,1,67,30.91a13,13,0,0,1,9.39-3.42c5.4,0,10.22,3.22,14.74,9.86l3.06,4.49,18.32-17.48-2.58-3.29c-5.28-6.74-10.37-11.42-15.52-14.3A37.13,37.13,0,0,0,75.77,2.3c-11,0-20.24,3.53-27.51,10.47S37.17,28.6,37.17,39.13c0,7.87,1.93,14.59,5.8,20,3.82,5.15,10.17,10.31,19.39,15.77C66,77.08,69,79,71.32,80.71a29.05,29.05,0,0,1,4.8,4.17A10.15,10.15,0,0,1,78.66,92c0,4.55-1.19,7.87-3.62,10.14s-6.1,3.51-10.92,3.51c-4.42,0-8-.9-10.52-2.67-2.77-1.92-5.77-5.7-8.92-11.25l-2.47-4.34L21.65,101.3l2.08,3.7a68.88,68.88,0,0,0,8,11.49,41.2,41.2,0,0,0,9.35,8.05c6.6,4.11,14.69,6.19,24,6.19,11.72,0,21.36-3.53,28.62-10.46,7.47-7,11.25-16.23,11.25-27.41,0-8.56-2-15.68-5.9-21.15C95.31,66.47,88.39,60.94,77.91,54.84Z" transform="translate(-15.2 -2.3)"/><path class="cls-2" d="M186.64,49.36l-.54,4.43a31.5,31.5,0,0,0-5.45-3.26,34.8,34.8,0,0,0-14.71-2.88c-11.89,0-21.79,4.23-29.47,12.58C129,68.44,125.25,79,125.25,91.68c0,11.15,3.37,20.42,10,27.55s15.48,10.9,26,10.9A33.82,33.82,0,0,0,177.2,126l-.32,2.48H202.6l9.75-79.14Zm-21.74,58A12.52,12.52,0,0,1,155,103c-2.72-3.07-4-7-4-12,0-5.94,1.68-10.79,5.11-14.79a15.08,15.08,0,0,1,12-5.61A13.28,13.28,0,0,1,178.43,75c2.78,3,4.12,6.91,4.12,11.94a21.16,21.16,0,0,1-5.42,14.58C173.61,105.42,169.61,107.33,164.9,107.33Z" transform="translate(-15.2 -2.3)"/><polygon class="cls-2" points="271.52 47.06 250.65 84.23 240.65 47.06 213.75 47.06 243.56 141.72 301.21 47.06 271.52 47.06"/><path class="cls-2" d="M392.91,64.47a30.55,30.55,0,0,0,8.37-8.23c3.45-5.16,5.19-11.69,5.19-19.41,0-10.26-3.19-18.56-9.49-24.69S382.28,2.9,372,2.9c-23.51,0-36.8,13.24-38.44,38.3l-.33,4.92h24.18l.34-4.25c.57-7.11,2.48-14.38,12.4-14.38,3.55,0,6.14.87,7.93,2.67s2.67,4.36,2.67,7.78c0,5-1.17,8.69-3.49,11.08s-5.59,3.48-10.23,3.46h-8.24l-3,24.29H361c16.24,0,18.32,7,18.32,13.12,0,4.78-1.45,8.5-4.45,11.38s-7,4.35-12,4.35c-4.3,0-7.68-1-10.05-2.83s-3.72-4.49-4.32-8.15l-.64-3.86H323.13l.51,5.07a43.16,43.16,0,0,0,3.89,14.42,33.6,33.6,0,0,0,8.26,10.91,35.34,35.34,0,0,0,12,6.72,47.91,47.91,0,0,0,15,2.23c12.37,0,22.59-3.63,30.36-10.79s11.88-16.92,11.88-28.7C405.06,79.23,400.9,70.33,392.91,64.47Z" transform="translate(-15.2 -2.3)"/><path class="cls-2" d="M531.18,32.76c-4.69-9.39-11.25-16.56-19.46-21.29A44.44,44.44,0,0,0,497,6.09c-5-1-11.92-1.41-21.05-1.41H448.68L433.45,128.5h34.23c5.34,0,10.06-.13,14-.38a98.7,98.7,0,0,0,10.7-1.19,54.85,54.85,0,0,0,16.72-6.3,53.56,53.56,0,0,0,12.09-10,62.84,62.84,0,0,0,9.15-13.5,73.33,73.33,0,0,0,7.77-33.4A68.52,68.52,0,0,0,531.18,32.76ZM511.83,63c0,11.69-3.06,21.49-9.13,29.17a24.73,24.73,0,0,1-11.46,8.71c-4.83,1.7-11.8,2.56-20.74,2.56h-7.7l9-73.76h5.42c9,0,15.79,1.11,20.06,3.27s7.83,6,10.48,11.19A41.58,41.58,0,0,1,511.83,63Z" transform="translate(-15.2 -2.3)"/><path class="cls-3" d="M182,157.74c.54,5.46.89,10.92,1,16.35s.06,10.91-.2,16.32" transform="translate(-15.2 -2.3)"/><path class="cls-3" d="M210.9,165.8a235.54,235.54,0,0,1-11.61,30.57" transform="translate(-15.2 -2.3)"/><path class="cls-3" d="M234.46,183.67a256.33,256.33,0,0,1-21.54,24.58" transform="translate(-15.2 -2.3)"/><path class="cls-3" d="M250.37,208a281.36,281.36,0,0,1-28.26,16.43" transform="translate(-15.2 -2.3)"/><path class="cls-3" d="M257.91,235.55q-7.86,2.32-15.79,4.24t-16,3.42" transform="translate(-15.2 -2.3)"/><path class="cls-3" d="M257.67,263.69a314.13,314.13,0,0,1-32.67-1" transform="translate(-15.2 -2.3)"/><path class="cls-3" d="M249.53,291.1a274.6,274.6,0,0,1-30.91-10.6" transform="translate(-15.2 -2.3)"/><path class="cls-3" d="M233.06,315.11A251.64,251.64,0,0,1,207.3,295" transform="translate(-15.2 -2.3)"/><path class="cls-3" d="M209,332.38a229.37,229.37,0,0,1-16.86-28" transform="translate(-15.2 -2.3)"/><path class="cls-3" d="M179.86,339.68A219.83,219.83,0,0,1,175,307.35" transform="translate(-15.2 -2.3)"/><path class="cls-4" d="M194.79,247.94c0,58.56-43.65,97.51-88.71,88.71-37.6-7.34-63.8-46.6-63.8-88.71s26.2-81.37,63.8-88.72C151.14,150.43,194.79,189.38,194.79,247.94Z" transform="translate(-15.2 -2.3)"/><path class="cls-4" d="M151,166.6a67.72,67.72,0,0,1,16.17-6.52" transform="translate(-15.2 -2.3)"/><path class="cls-4" d="M167.12,160.08c1.25-.32,2.52-.61,3.8-.86,45.05-8.79,88.71,30.16,88.71,88.72S216,345.45,170.92,336.65a67.26,67.26,0,0,1-20.86-7.87" transform="translate(-15.2 -2.3)"/><path class="cls-4" d="M172.87,183.4C201.65,187.63,225.6,213,225.6,248c0,34.69-23.49,59.89-51.9,64.48" transform="translate(-15.2 -2.3)"/><path class="cls-5" d="M173.75,185.18C194.62,192.7,211,217.09,211,249.61c0,35.55-19.54,61.38-43.16,66.08" transform="translate(-15.2 -2.3)"/><path class="cls-6" d="M132.56,247.94c0,14.42-10.76,24-21.86,21.85C101.44,268,95,258.31,95,247.94s6.45-20.05,15.71-21.85C121.8,223.92,132.56,233.51,132.56,247.94Z" transform="translate(-15.2 -2.3)"/><path class="cls-7" d="M151.54,247.94c0,29-21.62,48.29-43.94,43.94C89,288.24,76,268.8,76,247.94s13-40.3,31.6-43.94C129.92,199.64,151.54,218.94,151.54,247.94Z" transform="translate(-15.2 -2.3)"/><path class="cls-3" d="M193.14,267.18c-11-.32-21.78-1.15-32.58-2.55" transform="translate(-15.2 -2.3)"/><path class="cls-3" d="M184.07,293.78A278.57,278.57,0,0,1,153.57,282" transform="translate(-15.2 -2.3)"/><path class="cls-3" d="M166.74,317a230.35,230.35,0,0,1-24.66-21.41" transform="translate(-15.2 -2.3)"/><path class="cls-3" d="M141.2,332.76c-1.36-2.38-2.67-4.77-3.92-7.19s-2.48-4.89-3.63-7.36q-3.47-7.43-6.25-15" transform="translate(-15.2 -2.3)"/><path class="cls-3" d="M110.55,336.17c-.31-5.44-.36-11-.19-16.41s.55-10.82,1.2-16.24" transform="translate(-15.2 -2.3)"/><path class="cls-3" d="M81.82,325.6a215.37,215.37,0,0,1,15-29" transform="translate(-15.2 -2.3)"/><path class="cls-3" d="M60.65,305.27a275.56,275.56,0,0,1,24.24-21.92" transform="translate(-15.2 -2.3)"/><path class="cls-3" d="M47.66,280.18a323.43,323.43,0,0,1,29.52-14" transform="translate(-15.2 -2.3)"/><path class="cls-3" d="M42.19,252.87q8-1.83,16-3.25t16.15-2.43" transform="translate(-15.2 -2.3)"/><path class="cls-3" d="M44.15,225.12a322.81,322.81,0,0,1,32.53,3" transform="translate(-15.2 -2.3)"/><path class="cls-3" d="M53.52,198.75A289.1,289.1,0,0,1,83.94,210.7" transform="translate(-15.2 -2.3)"/><path class="cls-3" d="M70.71,175.71A232.88,232.88,0,0,1,95.52,197" transform="translate(-15.2 -2.3)"/><path class="cls-3" d="M96.23,159.76a188,188,0,0,1,13.82,29.57" transform="translate(-15.2 -2.3)"/><path class="cls-3" d="M126.91,156.33c.31,5.47.37,11,.2,16.41s-.58,10.84-1.23,16.25" transform="translate(-15.2 -2.3)"/><path class="cls-3" d="M155.58,166.81A217.86,217.86,0,0,1,140.76,196" transform="translate(-15.2 -2.3)"/><path class="cls-3" d="M176.91,187.1A263.66,263.66,0,0,1,152.65,209" transform="translate(-15.2 -2.3)"/><path class="cls-3" d="M189.82,212.48a312.9,312.9,0,0,1-29.73,13.6" transform="translate(-15.2 -2.3)"/><path class="cls-3" d="M194.9,239.75c-10.63,2.34-21.47,4.18-32.21,5.55" transform="translate(-15.2 -2.3)"/><path class="cls-8" d="M134.66,273A5.76,5.76,0,0,1,133,269.6a5.39,5.39,0,0,1,.74-3.43A4.58,4.58,0,0,1,135,264.9a4.87,4.87,0,0,1,1.58-.83,5.63,5.63,0,0,1,3.81.15,4.16,4.16,0,0,1,2.43,2.91,5.83,5.83,0,0,1,.1,2.18,6.42,6.42,0,0,1-.92,2.2,5.51,5.51,0,0,1-3.66,2.56A4.14,4.14,0,0,1,134.66,273Z" transform="translate(-15.2 -2.3)"/><path class="cls-8" d="M104.39,279.16a5.65,5.65,0,0,1,2.68-2.65,4.8,4.8,0,0,1,1.69-.49,4,4,0,0,1,1.73.05,5.77,5.77,0,0,1,1.58.7,6.42,6.42,0,0,1,1.27,1.23,5.56,5.56,0,0,1,1.22,3.54,4.2,4.2,0,0,1-1.85,3.39,4.9,4.9,0,0,1-2,.79,5.47,5.47,0,0,1-2.44-.08,7.09,7.09,0,0,1-2.23-1,5.71,5.71,0,0,1-1.44-1.65A4.12,4.12,0,0,1,104.39,279.16Z" transform="translate(-15.2 -2.3)"/><path class="cls-8" d="M85.09,253.8a5.41,5.41,0,0,1,3.73.67,5.28,5.28,0,0,1,2.31,2.76,4.94,4.94,0,0,1,.29,1.81,6.21,6.21,0,0,1-.37,1.8,5.29,5.29,0,0,1-2.46,2.85,4.38,4.38,0,0,1-3.84.09,4.8,4.8,0,0,1-1.69-1.27,5.79,5.79,0,0,1-1.2-2,5.6,5.6,0,0,1,.21-4.37A4.29,4.29,0,0,1,85.09,253.8Z" transform="translate(-15.2 -2.3)"/><path class="cls-8" d="M93,222.93a5.36,5.36,0,0,1,1.65,3.35,5.47,5.47,0,0,1,0,1.81,6.29,6.29,0,0,1-.67,1.65A4.77,4.77,0,0,1,92.71,231a5,5,0,0,1-1.6.83,5.51,5.51,0,0,1-3.77-.14,4.2,4.2,0,0,1-2.47-2.92,5.75,5.75,0,0,1-.08-2.16,6.24,6.24,0,0,1,.88-2.2,5.8,5.8,0,0,1,3.63-2.59A4.28,4.28,0,0,1,93,222.93Z" transform="translate(-15.2 -2.3)"/><path class="cls-8" d="M123.26,216.7a5.48,5.48,0,0,1-2.66,2.65,7.65,7.65,0,0,1-1.7.54,5.43,5.43,0,0,1-3.31-.77,7.16,7.16,0,0,1-1.28-1.24,5.46,5.46,0,0,1-1.23-3.53,4.2,4.2,0,0,1,1.85-3.39,4.5,4.5,0,0,1,2-.8,7.17,7.17,0,0,1,2.44,0,7.27,7.27,0,0,1,2.21,1,4.39,4.39,0,0,1,1.46,1.61A4.26,4.26,0,0,1,123.26,216.7Z" transform="translate(-15.2 -2.3)"/><path class="cls-8" d="M142.37,242.11a5.29,5.29,0,0,1-3.74-.68,5.5,5.5,0,0,1-2.3-2.81,4.45,4.45,0,0,1-.23-1.84,6.26,6.26,0,0,1,.36-1.77,5.32,5.32,0,0,1,2.52-2.82,4.33,4.33,0,0,1,3.83,0,5,5,0,0,1,1.71,1.28,6.86,6.86,0,0,1,1.12,2,5.36,5.36,0,0,1-.25,4.34A4.25,4.25,0,0,1,142.37,242.11Z" transform="translate(-15.2 -2.3)"/><path class="cls-5" d="M177.07,189.93c16.15,10.62,27.78,32.26,27.78,59.68,0,27.69-11.85,49.47-28.24,60" transform="translate(-15.2 -2.3)"/><path class="cls-5" d="M180.46,186.29c20.87,7.52,37.21,31.91,37.21,64.43,0,21-6.85,38.7-17.34,50.56" transform="translate(-15.2 -2.3)"/><path class="cls-9" d="M287.68,168.84l17.63-1.59q11.73-1,18.26,3.73,5.37,3.9,8.68,11.59a49.41,49.41,0,0,1,3.71,17A47.28,47.28,0,0,1,331.39,223c-5,10.07-13.32,15.27-24.73,15.66l-9.59.33-2.3,48.1-12.69-.05Zm12,15.45-1.88,39,8.46-.39q8.09-.37,12.25-6.26t3.72-16.7c-.48-11.59-6.21-16.95-17-16.12Z" transform="translate(-15.2 -2.3)"/><path class="cls-9" d="M363.78,211l-.35,6.6c4.43-6,9.06-9.12,13.88-9.38q6.39-.34,11.95,5.39L380.81,229q-4.08-4.11-7.94-3.94a8.19,8.19,0,0,0-4.61,1.54A10.85,10.85,0,0,0,365,231a30.51,30.51,0,0,0-2.13,7.51,93.87,93.87,0,0,0-1.06,10.89l-2,38-13.55,0,3.9-75.61Z" transform="translate(-15.2 -2.3)"/><path class="cls-9" d="M415.81,208.23l-4.46,79.39-14.61-.06L401.07,209Zm3.07-38.15a11.21,11.21,0,0,1-2.07,7.2,7.33,7.33,0,0,1-5.53,3.37,6.82,6.82,0,0,1-5.8-2.59,11.63,11.63,0,0,1-2.63-7.1,11.25,11.25,0,0,1,2-7.14,7.32,7.32,0,0,1,5.42-3.42,6.8,6.8,0,0,1,5.85,2.62A10.64,10.64,0,0,1,418.88,170.08Z" transform="translate(-15.2 -2.3)"/><path class="cls-9" d="M452.42,206.28l-.4,7.56q8.94-10,18.66-10.56,10.11-.56,16.58,5.93t6.85,18.4q.27,6.4-.26,15.34L491,288l-16.27-.07,2.94-48.73c.12-1.82.19-3.44.2-4.85s0-2.68-.05-3.79q-.48-11.26-10.55-10.83a14.14,14.14,0,0,0-10.32,5,21.69,21.69,0,0,0-4.9,8.85,38.35,38.35,0,0,0-1.3,6.4q-.48,3.78-.76,8.71l-2.31,39.16-15.39-.07L437,207.1Z" transform="translate(-15.2 -2.3)"/><path class="cls-9" d="M537.35,220.58,533,288.12l-17.29-.07,4.26-66.76-9.67.4,1.15-18.56,9.69-.51,2.56-40,17.55-1.4-2.65,40.46L555,200.8l-1.24,19.11Z" transform="translate(-15.2 -2.3)"/><path class="cls-9" d="M616.83,207.57l-10.48,12.5q-8-7.24-14.41-6.95a10.09,10.09,0,0,0-7.1,3,8.82,8.82,0,0,0-2.55,6.77,9.39,9.39,0,0,0,2.64,6.43q2.51,2.67,10.31,7.09c7.5,4.31,12.61,8.34,15.28,12.06Q614.8,254,615.18,263q.54,12.9-7.3,20.69c-5.29,5.09-12.29,7.59-20.94,7.54-11.64-.07-21.39-5.94-29.33-17.52l11.55-9.51q7.85,10,16.38,9.93a10.41,10.41,0,0,0,7.68-2.89,9.54,9.54,0,0,0,2.65-7.44,8.92,8.92,0,0,0-2.76-6.43,36.57,36.57,0,0,0-4.33-3.34q-3.07-2.13-8.28-5-9.13-5.35-12.74-10.49a25.28,25.28,0,0,1-4-13.34q-.49-11.94,7-20.16c5-5.53,11.62-8.54,19.85-9C599.8,195.45,608.54,199.3,616.83,207.57Z" transform="translate(-15.2 -2.3)"/><polygon class="cls-9" points="272.47 166.54 280.09 161.69 274.5 279.93 266.88 284.78 272.47 166.54"/><polygon class="cls-9" points="279.57 284.83 287.19 279.98 274.5 279.93 266.88 284.78 279.57 284.83"/><polygon class="cls-9" points="331.02 285.04 338.64 280.19 352.18 280.25 344.56 285.1 331.02 285.04"/><polygon class="cls-9" points="334.92 209.43 342.54 204.58 338.64 280.19 331.02 285.04 334.92 209.43"/><polygon class="cls-9" points="365.61 226.73 373.23 221.88 369.76 219.16 365.61 226.73"/><polygon class="cls-9" points="381.54 285.25 389.16 280.4 403.77 280.46 396.15 285.31 381.54 285.25"/><polygon class="cls-9" points="385.87 206.71 393.49 201.86 389.16 280.4 381.54 285.25 385.87 206.71"/><polygon class="cls-9" points="417.11 285.4 424.73 280.55 440.12 280.61 432.5 285.46 417.11 285.4"/><polygon class="cls-9" points="429.37 199.95 421.75 204.8 417.11 285.4 424.73 280.55 429.37 199.95"/><polygon class="cls-9" points="500.45 285.75 508.07 280.9 525.37 280.97 517.75 285.82 500.45 285.75"/><polygon class="cls-9" points="508.44 160.32 516.07 155.47 515.79 159.73 508.44 160.32"/><polygon class="cls-9" points="496.19 200.83 503.81 195.98 503.54 200.44 496.19 200.83"/><polygon class="cls-9" points="542.4 271.36 550.02 266.51 561.58 257 553.96 261.85 542.4 271.36"/><polygon class="cls-9" points="591.14 217.77 596.7 211.15 598.76 212.92 591.14 217.77"/><polygon class="cls-9" points="475.81 285.64 483.43 280.79 467.17 280.73 459.55 285.58 475.81 285.64"/><path class="cls-10" d="M295.3,164l17.63-1.59q11.73-1.05,18.26,3.73,5.37,3.9,8.68,11.59a49.36,49.36,0,0,1,3.71,17A47.28,47.28,0,0,1,339,218.19c-5,10.07-13.32,15.27-24.73,15.66l-9.59.32-2.3,48.11-12.69,0Zm12,15.45-1.88,39,8.46-.39q8.09-.37,12.25-6.26t3.73-16.7c-.49-11.59-6.22-16.95-17.05-16.12Z" transform="translate(-15.2 -2.3)"/><path class="cls-10" d="M371.4,206.16l-.35,6.59c4.43-6,9.06-9.11,13.88-9.37q6.39-.36,11.95,5.39l-8.45,15.41q-4.08-4.11-7.94-3.94a8.18,8.18,0,0,0-4.61,1.53,11,11,0,0,0-3.3,4.37,30.55,30.55,0,0,0-2.13,7.5,94.29,94.29,0,0,0-1.06,10.9l-2,38-13.55-.05,3.9-75.62Z" transform="translate(-15.2 -2.3)"/><path class="cls-10" d="M423.43,203.38,419,282.77l-14.61-.06,4.33-78.54Zm3.08-38.15a11.27,11.27,0,0,1-2.08,7.2,7.33,7.33,0,0,1-5.53,3.37,6.83,6.83,0,0,1-5.8-2.6,11.6,11.6,0,0,1-2.63-7.09,11.25,11.25,0,0,1,2-7.14,7.32,7.32,0,0,1,5.42-3.42,6.79,6.79,0,0,1,5.85,2.62A10.7,10.7,0,0,1,426.51,165.23Z" transform="translate(-15.2 -2.3)"/><path class="cls-10" d="M460,201.43l-.4,7.56c6-6.67,12.18-10.21,18.66-10.56q10.11-.56,16.58,5.93t6.85,18.4q.27,6.41-.26,15.34l-2.83,45L482.37,283l2.94-48.73c.12-1.82.19-3.44.2-4.86s0-2.67-.05-3.79c-.31-7.51-3.84-11.12-10.55-10.83a14.18,14.18,0,0,0-10.32,5,21.79,21.79,0,0,0-4.9,8.86,38.35,38.35,0,0,0-1.3,6.4q-.48,3.78-.76,8.71l-2.31,39.16-15.39-.07,4.65-80.6Z" transform="translate(-15.2 -2.3)"/><path class="cls-10" d="M545,215.73l-4.4,67.54-17.29-.07,4.27-66.76-9.68.4L519,198.28l9.69-.52,2.56-40,17.55-1.4-2.65,40.46,16.49-.88-1.24,19.11Z" transform="translate(-15.2 -2.3)"/><path class="cls-10" d="M624.45,202.72,614,215.22q-8-7.25-14.41-6.95a10.12,10.12,0,0,0-7.1,3,8.86,8.86,0,0,0-2.55,6.78,9.48,9.48,0,0,0,2.64,6.43q2.51,2.67,10.31,7.09c7.5,4.31,12.61,8.34,15.28,12q4.27,5.51,4.66,14.46.54,12.92-7.3,20.7c-5.29,5.09-12.29,7.59-20.94,7.54-11.64-.07-21.39-5.94-29.33-17.52l11.56-9.51q7.83,10,16.37,9.93a10.41,10.41,0,0,0,7.68-2.89,9.54,9.54,0,0,0,2.65-7.44,8.92,8.92,0,0,0-2.76-6.43,37.49,37.49,0,0,0-4.33-3.35q-3.07-2.12-8.28-5-9.14-5.34-12.74-10.48a25.28,25.28,0,0,1-4-13.34q-.49-11.94,7-20.17t19.85-9Q612,190.34,624.45,202.72Z" transform="translate(-15.2 -2.3)"/></svg>